<svg width="47" height="47" viewBox="0 0 47 47" fill="none" xmlns="http://www.w3.org/2000/svg">
<rect width="47" height="47" rx="23.5" fill="#FFD5D5"/>
<path d="M32.7299 29.5L24.7299 15.5C24.5555 15.1922 24.3025 14.9362 23.9969 14.758C23.6912 14.5799 23.3437 14.4861 22.9899 14.4861C22.6361 14.4861 22.2887 14.5799 21.983 14.758C21.6773 14.9362 21.4244 15.1922 21.2499 15.5L13.2499 29.5C13.0736 29.8053 12.9812 30.1519 12.9819 30.5045C12.9827 30.8571 13.0767 31.2032 13.2544 31.5078C13.432 31.8124 13.6871 32.0646 13.9936 32.2388C14.3002 32.4131 14.6473 32.5032 14.9999 32.5H30.9999C31.3508 32.4996 31.6955 32.4069 31.9992 32.2313C32.303 32.0556 32.5551 31.8031 32.7304 31.4991C32.9057 31.1951 32.998 30.8504 32.9979 30.4995C32.9978 30.1486 32.9054 29.8039 32.7299 29.5Z" fill="#F13535"/>
<path d="M23 20.5V24.5" stroke="#FBFBFB" stroke-width="2" stroke-linecap="round" stroke-linejoin="round"/>
<path d="M23 28.5H23.01" stroke="#FBFBFB" stroke-width="2" stroke-linecap="round" stroke-linejoin="round"/>
</svg>
