<svg width="58" height="36" viewBox="0 0 58 36" fill="none" xmlns="http://www.w3.org/2000/svg">
<rect x="1.16667" y="0.5" width="56" height="35" rx="5.5" stroke="#B67B0F"/>
<path d="M14.6995 9.27141C15.5042 7.5762 17.8292 7.5762 18.6339 9.27141L20.0246 12.2012C20.3441 12.8743 20.9618 13.3409 21.6763 13.4489L24.786 13.9187C26.5853 14.1905 27.3038 16.4895 26.0018 17.8091L23.7516 20.0896C23.2346 20.6136 22.9986 21.3685 23.1207 22.1084L23.6519 25.3285C23.9592 27.1918 22.0783 28.6126 20.4689 27.7329L17.6875 26.2126C17.0484 25.8633 16.2849 25.8633 15.6458 26.2126L12.8644 27.7329C11.2551 28.6126 9.37409 27.1918 9.68146 25.3286L10.2127 22.1084C10.3347 21.3685 10.0988 20.6136 9.58175 20.0896L7.33155 17.8091C6.02954 16.4895 6.748 14.1905 8.54733 13.9187L11.657 13.4489C12.3716 13.3409 12.9892 12.8743 13.3088 12.2012L14.6995 9.27141Z" fill="#FCDB0A"/>
<path d="M36.5167 22.654C35.2287 22.654 34.118 22.2107 33.1847 21.324L33.8147 20.638C34.244 21.0393 34.6687 21.3333 35.0887 21.52C35.518 21.6973 35.9987 21.786 36.5307 21.786C37.0067 21.786 37.4267 21.688 37.7907 21.492C38.1547 21.296 38.4347 21.0207 38.6307 20.666C38.836 20.3113 38.9387 19.9053 38.9387 19.448C38.9387 18.7947 38.7147 18.2673 38.2667 17.866C37.828 17.4647 37.2493 17.264 36.5307 17.264C36.1573 17.264 35.7933 17.3107 35.4387 17.404C35.084 17.488 34.7153 17.628 34.3327 17.824L33.6327 17.6L33.8567 12.7H39.4287V13.582H34.7247L34.5707 16.97C34.944 16.7833 35.3033 16.6527 35.6487 16.578C35.994 16.494 36.358 16.452 36.7407 16.452C37.3847 16.452 37.9447 16.578 38.4207 16.83C38.906 17.0727 39.2793 17.418 39.5407 17.866C39.8113 18.3047 39.9467 18.818 39.9467 19.406C39.9467 20.05 39.802 20.6147 39.5127 21.1C39.2233 21.5853 38.822 21.968 38.3087 22.248C37.7953 22.5187 37.198 22.654 36.5167 22.654ZM42.1139 22.612C41.9086 22.612 41.7313 22.5373 41.5819 22.388C41.4419 22.2387 41.3719 22.0613 41.3719 21.856C41.3719 21.6413 41.4419 21.464 41.5819 21.324C41.7313 21.1747 41.9086 21.1 42.1139 21.1C42.3193 21.1 42.4919 21.1747 42.6319 21.324C42.7813 21.464 42.8559 21.6413 42.8559 21.856C42.8559 22.0613 42.7813 22.2387 42.6319 22.388C42.4919 22.5373 42.3193 22.612 42.1139 22.612ZM48.1285 22.654C47.3818 22.654 46.7191 22.4393 46.1405 22.01C45.5711 21.5807 45.1231 20.988 44.7965 20.232C44.4698 19.4667 44.3065 18.5893 44.3065 17.6C44.3065 16.6013 44.4698 15.724 44.7965 14.968C45.1231 14.212 45.5711 13.6193 46.1405 13.19C46.7191 12.7607 47.3818 12.546 48.1285 12.546C48.8751 12.546 49.5331 12.7607 50.1025 13.19C50.6811 13.6193 51.1338 14.212 51.4605 14.968C51.7871 15.724 51.9505 16.6013 51.9505 17.6C51.9505 18.5893 51.7871 19.4667 51.4605 20.232C51.1338 20.988 50.6811 21.5807 50.1025 22.01C49.5331 22.4393 48.8751 22.654 48.1285 22.654ZM48.1285 21.744C48.6978 21.744 49.1878 21.576 49.5985 21.24C50.0185 20.8947 50.3451 20.414 50.5785 19.798C50.8118 19.1727 50.9285 18.44 50.9285 17.6C50.9285 16.76 50.8118 16.032 50.5785 15.416C50.3451 14.7907 50.0185 14.31 49.5985 13.974C49.1878 13.6287 48.6978 13.456 48.1285 13.456C47.5685 13.456 47.0785 13.6287 46.6585 13.974C46.2385 14.31 45.9118 14.7907 45.6785 15.416C45.4451 16.032 45.3285 16.76 45.3285 17.6C45.3285 18.44 45.4451 19.1727 45.6785 19.798C45.9118 20.414 46.2385 20.8947 46.6585 21.24C47.0785 21.576 47.5685 21.744 48.1285 21.744Z" fill="#FBFBFB"/>
</svg>
