<svg width="25" height="24" viewBox="0 0 25 24" fill="none" xmlns="http://www.w3.org/2000/svg">
<path d="M10.6995 3.27141C11.5042 1.5762 13.8292 1.5762 14.6339 3.27141L16.0246 6.20118C16.3441 6.87435 16.9618 7.34094 17.6763 7.44888L20.786 7.91869C22.5853 8.19053 23.3038 10.4895 22.0018 11.8091L19.7516 14.0896C19.2346 14.6136 18.9986 15.3685 19.1207 16.1084L19.6519 19.3285C19.9592 21.1918 18.0783 22.6126 16.4689 21.7329L13.6875 20.2126C13.0484 19.8633 12.2849 19.8633 11.6458 20.2126L8.86444 21.7329C7.25506 22.6126 5.37409 21.1918 5.68146 19.3286L6.21266 16.1084C6.33471 15.3685 6.09878 14.6136 5.58175 14.0896L3.33155 11.8091C2.02954 10.4895 2.748 8.19053 4.54733 7.91869L7.65704 7.44888C8.37156 7.34094 8.98924 6.87435 9.30878 6.20118L10.6995 3.27141Z" fill="#FCDB0A"/>
</svg>
