<svg width="24" height="25" viewBox="0 0 24 25" fill="none" xmlns="http://www.w3.org/2000/svg">
<path fill-rule="evenodd" clip-rule="evenodd" d="M20.7071 5.20711C21.0976 4.81658 21.0976 4.18342 20.7071 3.79289C20.3166 3.40237 19.6834 3.40237 19.2929 3.79289L13.348 9.73779L9.07342 3.90865C8.88504 3.65177 8.58555 3.5 8.267 3.5H4C3.62317 3.5 3.27833 3.71184 3.108 4.04798C2.93766 4.38412 2.97075 4.78747 3.19359 5.09135L9.45538 13.6304L3.29289 19.7929C2.90237 20.1834 2.90237 20.8166 3.29289 21.2071C3.68342 21.5976 4.31658 21.5976 4.70711 21.2071L10.652 15.2622L14.9266 21.0914C15.115 21.3482 15.4145 21.5 15.733 21.5H20C20.3768 21.5 20.7217 21.2882 20.892 20.952C21.0623 20.6159 21.0293 20.2125 20.8064 19.9086L14.5446 11.3696L20.7071 5.20711ZM12.3703 11.7865C12.4012 11.838 12.4371 11.8872 12.4781 11.9336L18.0266 19.5H16.2398L5.97338 5.5H7.76026L12.3703 11.7865Z" fill="#FBFBFB"/>
</svg>
